<?xml version="1.0" standalone="no"?>
<!DOCTYPE svg PUBLIC "-//W3C//DTD SVG 20010904//EN"
 "http://www.w3.org/TR/2001/REC-SVG-20010904/DTD/svg10.dtd">
<svg version="1.0" xmlns="http://www.w3.org/2000/svg"
 width="838.000000pt" height="297.000000pt" viewBox="0 0 838.000000 297.000000"
 preserveAspectRatio="xMidYMid meet">

<g transform="translate(0.000000,297.000000) scale(0.100000,-0.100000)"
fill="#000000" stroke="none">
<path d="M1242 2678 c-6 -6 -12 -27 -12 -45 l0 -33 111 0 110 0 -3 43 -3 42
-95 3 c-66 2 -99 -1 -108 -10z"/>
<path d="M1232 2443 l3 -128 108 -3 107 -3 0 131 0 130 -110 0 -111 0 3 -127z"/>
<path d="M4018 2308 c-9 -7 -80 -175 -157 -373 -148 -380 -167 -415 -226 -415
-18 0 -25 -5 -25 -20 0 -19 7 -20 135 -20 128 0 135 1 135 20 0 15 -7 20 -26
20 -35 0 -64 17 -64 38 0 10 15 63 33 117 l34 100 134 3 135 3 39 -116 c39
-114 40 -117 21 -131 -11 -8 -30 -14 -43 -14 -16 0 -23 -6 -23 -20 0 -19 7
-20 155 -20 148 0 155 1 155 20 0 16 -7 20 -31 20 -65 0 -67 4 -290 628 -34
94 -64 172 -68 172 -4 0 -14 -6 -23 -12z m32 -307 c27 -78 50 -146 50 -152 0
-5 -48 -9 -111 -9 -102 0 -111 1 -104 18 4 9 29 79 57 155 28 75 52 136 54
134 2 -2 26 -68 54 -146z"/>
<path d="M2940 2280 c0 -16 7 -20 35 -20 22 0 43 -8 55 -20 19 -19 20 -33 20
-350 0 -317 -1 -331 -20 -350 -12 -12 -33 -20 -55 -20 -28 0 -35 -4 -35 -20 0
-20 7 -20 284 -20 262 0 285 1 290 18 11 36 36 154 36 168 0 8 -8 14 -19 14
-12 0 -24 -14 -35 -45 -35 -90 -118 -128 -244 -110 -93 12 -87 -12 -87 370 0
322 1 337 19 351 11 8 35 14 53 14 26 0 33 4 33 20 0 19 -7 20 -165 20 -158 0
-165 -1 -165 -20z"/>
<path d="M4482 2283 c2 -10 16 -20 33 -23 47 -10 73 -28 91 -61 14 -27 15 -72
12 -331 l-3 -300 -28 -24 c-16 -14 -41 -24 -58 -24 -22 0 -29 -5 -29 -20 0
-19 7 -20 150 -20 140 0 150 1 150 19 0 14 -10 20 -42 24 -65 9 -75 28 -83
159 -3 62 -5 188 -3 280 l3 167 269 -330 c179 -219 275 -329 287 -329 18 0 19
14 20 318 1 435 5 455 80 471 20 4 35 14 37 24 3 15 -10 17 -147 17 -141 0
-151 -1 -151 -19 0 -14 10 -20 42 -24 26 -3 49 -14 60 -26 23 -29 30 -127 26
-364 l-3 -197 -263 315 -262 315 -96 0 c-85 0 -95 -2 -92 -17z"/>
<path d="M5450 2280 c0 -16 7 -20 33 -20 18 0 42 -6 53 -14 18 -14 19 -29 19
-355 0 -256 -3 -343 -12 -352 -7 -7 -32 -15 -55 -18 -31 -4 -44 -11 -46 -25
-4 -17 6 -18 225 -13 165 3 243 9 282 20 164 48 271 149 310 295 20 71 15 201
-9 264 -34 90 -80 142 -163 182 -96 47 -161 56 -419 56 -211 0 -218 -1 -218
-20z m419 -30 c84 -14 149 -49 199 -105 58 -66 77 -128 76 -250 0 -120 -23
-188 -86 -259 -60 -69 -125 -98 -225 -104 -94 -5 -135 7 -152 44 -17 37 -15
648 2 662 26 21 97 26 186 12z"/>
<path d="M6362 2283 c2 -12 16 -20 42 -24 67 -11 66 -6 66 -368 0 -179 -4
-331 -8 -337 -12 -19 -49 -34 -81 -34 -24 0 -31 -4 -31 -20 0 -20 7 -20 304
-20 l303 0 17 83 c10 45 20 90 22 100 4 12 0 17 -14 17 -13 0 -28 -18 -49 -57
-42 -82 -74 -98 -188 -98 -49 0 -102 3 -116 7 -41 12 -49 45 -49 203 l0 145
98 0 c112 0 138 -11 148 -65 4 -25 11 -35 25 -35 18 0 19 9 19 120 0 112 -1
120 -19 120 -13 0 -21 -9 -26 -30 -11 -49 -37 -60 -147 -60 l-98 0 0 159 0
159 31 7 c17 4 71 4 120 0 107 -9 130 -23 154 -96 13 -37 21 -49 32 -45 8 3
15 6 16 6 1 0 1 40 -1 90 l-3 90 -285 0 c-266 0 -285 -1 -282 -17z"/>
<path d="M7080 2280 c0 -16 7 -20 33 -20 18 0 42 -6 53 -14 18 -14 19 -29 19
-355 0 -256 -3 -343 -12 -352 -7 -7 -32 -15 -55 -18 -31 -4 -44 -11 -46 -25
-4 -17 6 -18 225 -13 165 3 243 9 282 20 164 48 271 149 310 295 20 71 15 201
-9 264 -34 90 -80 142 -163 182 -96 47 -161 56 -419 56 -211 0 -218 -1 -218
-20z m419 -30 c84 -14 149 -49 199 -105 58 -66 77 -128 76 -250 0 -120 -23
-188 -86 -259 -60 -69 -125 -98 -225 -104 -94 -5 -135 7 -152 44 -17 37 -15
648 2 662 26 21 97 26 186 12z"/>
<path d="M988 2269 c-15 -8 -18 -25 -18 -109 l0 -100 370 0 370 0 0 98 c0 63
-4 102 -12 110 -16 16 -684 17 -710 1z m162 -49 l0 -30 -60 0 -60 0 0 30 0 30
60 0 60 0 0 -30z m170 0 l0 -30 -60 0 -60 0 0 30 0 30 60 0 60 0 0 -30z m170
0 l0 -30 -60 0 -60 0 0 30 0 30 60 0 60 0 0 -30z m170 0 l0 -30 -60 0 -60 0 0
30 0 30 60 0 60 0 0 -30z"/>
<path d="M888 2019 c-16 -9 -18 -30 -18 -208 l0 -198 228 73 c125 41 233 74
240 74 8 0 114 -31 236 -70 122 -38 225 -70 229 -70 13 0 8 385 -5 398 -16 16
-884 17 -910 1z m282 -94 l0 -45 -110 0 -110 0 0 45 0 45 110 0 110 0 0 -45z
m280 0 l0 -46 -107 3 -108 3 -3 43 -3 42 110 0 111 0 0 -45z m280 0 l0 -45
-110 0 -110 0 0 45 0 45 110 0 110 0 0 -45z"/>
<path d="M1245 1695 c-38 -13 -221 -72 -405 -130 -184 -58 -363 -115 -398
-126 -53 -18 -62 -24 -62 -44 0 -31 20 -75 34 -75 6 0 65 18 131 39 66 21 272
87 457 146 l338 107 462 -146 c255 -80 466 -146 469 -146 3 0 14 18 24 40 22
50 15 60 -60 83 -60 19 -688 219 -795 253 -90 29 -106 29 -195 -1z"/>
<path d="M1100 1486 c-107 -35 -298 -96 -425 -136 -126 -40 -233 -75 -237 -79
-7 -6 290 -742 304 -756 3 -3 31 8 63 25 135 71 223 17 233 -142 2 -38 6 -68
9 -68 2 0 54 43 114 95 61 53 120 102 132 110 l22 14 0 497 c0 323 -4 498 -10
500 -5 1 -98 -26 -205 -60z"/>
<path d="M1360 1083 c1 -258 4 -478 7 -489 3 -17 14 -23 49 -27 25 -2 54 -13
66 -23 34 -31 58 -94 58 -156 0 -32 3 -58 6 -58 4 0 53 43 110 95 128 117 168
139 250 139 l61 0 141 345 c78 190 142 351 142 356 0 6 -100 41 -223 79 -122
38 -320 100 -439 138 -119 37 -219 68 -223 68 -3 0 -5 -210 -5 -467z"/>
<path d="M7000 1192 c0 -16 -3 -70 -6 -120 -7 -89 -6 -92 15 -92 11 0 21 4 21
10 0 5 9 35 21 66 27 71 54 84 179 84 l90 0 0 -364 c0 -201 -4 -376 -9 -389
-10 -26 -55 -47 -102 -47 -22 0 -29 -5 -29 -20 0 -19 7 -20 200 -20 193 0 200
1 200 20 0 15 -7 20 -29 20 -41 0 -90 19 -101 40 -6 11 -10 167 -10 390 l0
372 105 -4 c122 -4 136 -12 164 -99 13 -40 23 -55 39 -57 20 -3 20 0 16 75
-10 167 -15 180 -58 148 -30 -22 -638 -22 -656 0 -7 8 -21 15 -31 15 -14 0
-19 -7 -19 -28z"/>
<path d="M3155 1195 c-219 -49 -367 -211 -382 -420 -21 -286 184 -494 486
-495 36 0 107 8 159 17 l95 17 22 50 c12 28 30 75 40 105 14 45 15 55 4 62
-22 14 -28 11 -48 -29 -29 -56 -88 -120 -135 -145 -62 -33 -191 -31 -266 4
-200 94 -281 388 -169 611 56 111 152 176 275 186 131 10 215 -32 265 -133 23
-47 37 -65 52 -65 17 0 19 5 14 38 -3 20 -9 65 -13 98 -3 34 -9 66 -13 72 -10
16 -172 42 -255 41 -39 0 -98 -7 -131 -14z"/>
<path d="M4593 1195 c-222 -62 -358 -262 -340 -498 17 -225 185 -395 409 -414
292 -25 516 205 495 507 -12 180 -120 328 -286 391 -73 28 -206 35 -278 14z
m181 -49 c141 -43 230 -183 243 -386 15 -243 -93 -414 -272 -427 -162 -13
-297 112 -340 312 -69 324 117 577 369 501z"/>
<path d="M6014 1192 c-89 -31 -144 -89 -164 -173 -30 -124 30 -219 196 -309
119 -65 162 -99 184 -145 40 -83 12 -181 -62 -215 -116 -53 -231 5 -288 144
-47 112 -71 37 -37 -114 12 -53 14 -55 62 -74 73 -29 232 -29 296 0 105 49
159 127 159 233 0 113 -53 176 -229 270 -112 60 -166 111 -177 165 -19 106 46
186 153 186 80 0 136 -48 165 -142 12 -40 15 -43 37 -29 12 8 13 24 4 96 -6
47 -13 89 -16 92 -13 12 -125 33 -177 33 -30 -1 -78 -9 -106 -18z"/>
<path d="M859 511 c-48 -15 -73 -34 -176 -132 -56 -53 -111 -100 -122 -104
-18 -6 -34 -39 -23 -49 11 -12 80 40 168 125 118 115 208 157 234 110 5 -11
10 -53 10 -93 0 -82 13 -115 51 -137 40 -22 78 -1 189 104 105 99 148 129 197
138 49 10 63 -11 63 -94 0 -121 42 -177 112 -148 17 7 78 57 135 111 110 104
143 126 194 130 42 4 59 -25 59 -105 0 -94 32 -147 89 -147 31 0 25 24 -9 37
-38 14 -50 46 -50 129 0 115 -34 147 -129 118 -43 -12 -70 -32 -149 -107 -119
-113 -156 -140 -181 -132 -26 8 -31 26 -38 123 -7 103 -23 127 -80 126 -61 -2
-108 -30 -216 -131 -105 -99 -146 -127 -171 -117 -21 8 -27 29 -33 124 -9 116
-39 146 -124 121z"/>
</g>
</svg>
